<?xml version="1.0" encoding="UTF-8" standalone="no"?>
<!-- Created with Serif DrawPlus 11, 0, 3, 23 (Feb 25, 14:12:55) (http://www.serif.com) -->
<svg version="1.1" xmlns="http://www.w3.org/2000/svg" xmlns:xlink="http://www.w3.org/1999/xlink" xmlns:inkscape="http://www.inkscape.org/namespaces/inkscape" width="251.164" height="227.477">
	<g id="dp_group001" transform="matrix(1,0,0,1,-0.00133333,-0.496)">
		<path id="dp_path002" fill="none" fill-rule="evenodd" stroke="#00b050" stroke-width="1.2" d="M 139.255,92.544 L 155.153,153.225"/>
		<path id="dp_path003" fill="none" fill-rule="evenodd" stroke="#58ed12" stroke-width="1.2" d="M 155.152,153.08 L 118.016,199.791"/>
		<path id="dp_path004" fill="#02f522" fill-rule="evenodd" stroke="none" stroke-width="1.2" d="M 156.62,153.079 L 144.271,142.772 L 143.085,148.567 L 101.456,140.052 L 100.771,143.399 L 142.401,151.913 L 141.216,157.708 Z "/>
		<path id="dp_path005" fill="#00b050" fill-rule="evenodd" stroke="none" stroke-width="1.2" d="M 118.016,199.749 L 121.569,183.255 L 115.848,184.756 L 104.077,139.884 L 100.772,140.751 L 112.544,185.623 L 106.824,187.124 Z "/>
		<path id="dp_path006" fill="#423fff" fill-rule="evenodd" fill-opacity="0.654902" stroke="none" stroke-width="2.27333" d="M 138.984,157.617 L 247.827,42.8413 L 112.544,71.452 L 3.34,184.755 Z "/>
		<path id="dp_path007" fill="none" fill-rule="evenodd" stroke="#00b050" stroke-width="1.2" d="M 123.752,34.54 L 139.651,95.2213"/>
		<path id="dp_path008" fill="none" fill-rule="evenodd" stroke="#a8ed13" stroke-width="1.2" d="M 123.751,34.54 L 86.6147,81.2507"/>
		<path id="dp_path009" fill="#02f522" fill-rule="evenodd" stroke="none" stroke-width="1.2" d="M 123.752,34.616 L 113.148,48.6413 L 118.945,49.8107 L 100.625,140.671 L 103.973,141.345 L 122.295,50.4867 L 128.092,51.6547 Z "/>
		<path id="dp_path010" fill="#00b050" fill-rule="evenodd" stroke="none" stroke-width="1.2" d="M 86.7253,80.6307 L 83.172,97.1253 L 88.8933,95.624 L 100.664,140.496 L 103.969,139.629 L 92.1973,94.7573 L 97.9173,93.256 Z "/>
		<text id="dp_text001" transform="matrix(1,0,0,1,85.6427,17.542)" xml:space="preserve" fill="#02f522" font-family="Arial" font-size="17" font-weight="400" font-style="italic" x="0" y="0">c  </text>
		<text id="dp_text002" transform="matrix(1,0,0,1,109.315,17.497)" xml:space="preserve" fill="#00b050" font-family="Arial" font-size="17" font-weight="400" font-style="italic" x="0" y="0">c  </text>
		<g id="dp_group015">
			<path id="dp_path016" fill="none" fill-rule="evenodd" stroke="#00b050" stroke-width="1.2" d="M 120.292,15.784 L 120.267,23.8293"/>
			<path id="dp_path017" fill="none" fill-rule="evenodd" stroke="#00b050" stroke-width="1.2" d="M 116.271,23.8307 L 124.316,23.856"/>
		</g>
		<text id="dp_text003" transform="matrix(1,0,0,1,147.044,17.498)" xml:space="preserve" fill="#44c101" font-family="Arial" font-size="17" font-weight="400" font-style="italic" x="0" y="0">c  </text>
		<g id="dp_group020">
			<path id="dp_path021" fill="none" fill-rule="evenodd" stroke="#44c101" stroke-width="1.2" d="M 158.021,15.7853 L 157.996,23.8307"/>
			<path id="dp_path022" fill="none" fill-rule="evenodd" stroke="#44c101" stroke-width="1.2" d="M 160.821,15.784 L 160.796,23.8293"/>
		</g>
		<text id="dp_text004" transform="matrix(1,0,0,1,97.3977,18.583)" xml:space="preserve" fill="black" font-family="Arial" font-size="17" font-weight="400" x="0" y="0">=  </text>
		<text id="dp_text005" transform="matrix(1,0,0,1,134.567,18.583)" xml:space="preserve" fill="black" font-family="Arial" font-size="17" font-weight="400" font-style="italic" x="0" y="0">+  </text>
		<text id="dp_text006" transform="matrix(1,0,0,1,162.471,23.722)" xml:space="preserve" fill="#8f00d1" font-family="Arial" font-size="14" font-weight="400" font-style="italic" x="0" y="0">n  </text>
		<text id="dp_text007" transform="matrix(1,0,0,1,125.471,23.722)" xml:space="preserve" fill="#8f00d1" font-family="Arial" font-size="14" font-weight="400" font-style="italic" x="0" y="0">n  </text>
		<path id="dp_path027" fill="#8f00d1" fill-rule="evenodd" stroke="none" stroke-width="1.2" d="M 161.953,67.0147 L 145.924,74.7307 L 150.525,78.4467 L 100.52,140.375 L 103.177,142.521 L 153.184,80.5933 L 157.785,84.308 Z "/>
		<path id="dp_path028" fill="#58ed12" fill-rule="evenodd" stroke="none" stroke-width="1.2" d="M 140.449,93.644 L 125.061,100.567 L 129.664,104.283 L 100.52,140.376 L 103.177,142.523 L 132.321,106.429 L 136.923,110.145 Z "/>
		<text id="dp_text008" transform="matrix(1,0,0,1,166.747,75.226)" xml:space="preserve" fill="#8f00d1" font-family="Arial" font-size="17" font-weight="400" font-style="italic" x="0" y="0">n  </text>
		<text id="dp_text009" transform="matrix(1,0,0,1,160.28,159.503)" xml:space="preserve" fill="#02f522" font-family="Arial" font-size="17" font-weight="400" font-style="italic" x="0" y="0">c' </text>
		<path id="dp_path032" fill="black" fill-rule="evenodd" d="M 181.279,153.183 L 173.012,153.183 L 173.012,151.753 L 181.279,151.753 Z M 181.279,156.988 L 173.012,156.988 L 173.012,155.559 L 181.279,155.559 Z "/>
		<path id="dp_path033" fill="black" fill-rule="evenodd" d="M 219.447,155.076 L 211.18,155.076 L 211.18,153.647 L 219.447,153.647 Z "/>
		<text id="dp_text010" transform="matrix(1,0,0,1,223.13,159.43)" xml:space="preserve" fill="#00b050" font-family="Arial" font-size="17" font-weight="400" font-style="italic" x="0" y="0">c </text>
		<g id="dp_group036">
			<path id="dp_path037" fill="none" fill-rule="evenodd" stroke="#00b050" stroke-width="1.2" d="M 234.107,157.717 L 234.081,165.763"/>
			<path id="dp_path038" fill="none" fill-rule="evenodd" stroke="#00b050" stroke-width="1.2" d="M 230.085,165.764 L 238.131,165.789"/>
		</g>
		<text id="dp_text011" transform="matrix(1,0,0,1,239.286,165.656)" xml:space="preserve" fill="#8f00d1" font-family="Arial" font-size="14" font-weight="400" font-style="italic" x="0" y="0">n  </text>
		<text id="dp_text012" transform="matrix(1,0,0,1,183.983,159.331)" xml:space="preserve" fill="#44c101" font-family="Arial" font-size="17" font-weight="400" font-style="italic" x="0" y="0">c </text>
		<g id="dp_group041">
			<path id="dp_path042" fill="none" fill-rule="evenodd" stroke="#44c101" stroke-width="1.2" d="M 194.96,157.619 L 194.935,165.664"/>
			<path id="dp_path043" fill="none" fill-rule="evenodd" stroke="#44c101" stroke-width="1.2" d="M 197.76,157.617 L 197.735,165.663"/>
		</g>
		<text id="dp_text013" transform="matrix(1,0,0,1,199.41,165.556)" xml:space="preserve" fill="#8f00d1" font-family="Arial" font-size="14" font-weight="400" font-style="italic" x="0" y="0">n  </text>
		<text id="dp_text014" transform="matrix(1,0,0,1,56.4057,77.021)" xml:space="preserve" fill="#00b050" font-family="Arial" font-size="17" font-weight="400" font-style="italic" x="0" y="0">c  </text>
		<g id="dp_group047">
			<path id="dp_path048" fill="none" fill-rule="evenodd" stroke="#00b050" stroke-width="1.2" d="M 67.3827,75.308 L 67.3573,83.3533"/>
			<path id="dp_path049" fill="none" fill-rule="evenodd" stroke="#00b050" stroke-width="1.2" d="M 63.3613,83.3547 L 71.4067,83.38"/>
		</g>
		<text id="dp_text015" transform="matrix(1,0,0,1,147.783,103.443)" xml:space="preserve" fill="#58ed12" font-family="Arial" font-size="17" font-weight="400" font-style="italic" x="0" y="0">c  </text>
		<g id="dp_group052">
			<path id="dp_path053" fill="none" fill-rule="evenodd" stroke="#58ed12" stroke-width="1.2" d="M 158.76,101.731 L 158.735,109.776"/>
			<path id="dp_path054" fill="none" fill-rule="evenodd" stroke="#58ed12" stroke-width="1.2" d="M 161.56,101.729 L 161.535,109.775"/>
		</g>
		<text id="dp_text016" transform="matrix(1,0,0,1,163.21,109.668)" xml:space="preserve" fill="#8f00d1" font-family="Arial" font-size="14" font-weight="400" font-style="italic" x="0" y="0">n  </text>
		<text id="dp_text017" transform="matrix(1,0,0,1,72.5617,83.246)" xml:space="preserve" fill="#8f00d1" font-family="Arial" font-size="14" font-weight="400" font-style="italic" x="0" y="0">n  </text>
		<path id="dp_path058" fill="black" fill-rule="evenodd" d="M 110.247,213.996 L 101.98,213.996 L 101.98,212.567 L 110.247,212.567 Z "/>
		<text id="dp_text018" transform="matrix(1,0,0,1,113.93,218.35)" xml:space="preserve" fill="#00b050" font-family="Arial" font-size="17" font-weight="400" font-style="italic" x="0" y="0">c </text>
		<g id="dp_group061">
			<path id="dp_path062" fill="none" fill-rule="evenodd" stroke="#00b050" stroke-width="1.2" d="M 124.907,216.637 L 124.881,224.683"/>
			<path id="dp_path063" fill="none" fill-rule="evenodd" stroke="#00b050" stroke-width="1.2" d="M 120.885,224.684 L 128.931,224.709"/>
		</g>
		<text id="dp_text019" transform="matrix(1,0,0,1,130.086,224.576)" xml:space="preserve" fill="#8f00d1" font-family="Arial" font-size="14" font-weight="400" font-style="italic" x="0" y="0">n  </text>
	</g>
</svg>